PathFileType	4	(X/Y/Z)	./resultDataOpenSim/trcMotMarkerGrf/sub10/qtm-12-06.trc
DataRate	CameraRate	NumFrames	NumMarkers	Units	OrigDataRate	OrigDataStartFrame	OrigNumFrames
250.000000	250.000000	14	24	m	250.000000	302	483
Frame#	Time	L.Toe.Tip			R.Toe.Tip			L.Ankle.Lat			R.Ankle.Lat			L.Ankle.Med			R.Ankle.Med			L.Heel			R.Heel			L.Knee.Lat			R.Knee.Lat			L.Knee.Med			R.Knee.Med			L.Thigh.Upper			R.Thigh.Upper			L.ASIS			R.ASIS			V.Sacral			L.Acromium			R.Acromium			C7			L.Elbow			R.Elbow			L.Wrist.Lat			R.Wrist.Lat
		X1	Y1	Z1	X2	Y2	Z2	X3	Y3	Z3	X4	Y4	Z4	X5	Y5	Z5	X6	Y6	Z6	X7	Y7	Z7	X8	Y8	Z8	X9	Y9	Z9	X10	Y10	Z10	X11	Y11	Z11	X12	Y12	Z12	X13	Y13	Z13	X14	Y14	Z14	X15	Y15	Z15	X16	Y16	Z16	X17	Y17	Z17	X18	Y18	Z18	X19	Y19	Z19	X20	Y20	Z20	X21	Y21	Z21	X22	Y22	Z22	X23	Y23	Z23	X24	Y24	Z24

302	1.204	0.0054437451	0.01913111	-0.1252456	0.82839484	0.039579529	0.021944226	-0.036195877	0.14658268	-0.15734014	0.68843171	0.054660772	0.068675212	-0.00098535822	0.14668426	-0.079966339	0.70228789	0.078966205	-0.017659857	-0.08797354	0.17961676	-0.10632993	0.6354536	0.030017725	0.026637024	0.24502505	0.41523057	-0.18619941	0.68291525	0.45277341	0.084463902	0.26118355	0.37377996	-0.07198023	0.66879012	0.45741149	-0.043636127	0.38476011	0.76963212	-0.21670432	0.51356275	0.82415925	0.15329572	0.47987745	0.87014456	-0.17386645	0.55298986	0.90607385	0.058972421	0.3141969	0.90596674	0.0041206277	0.43887593	1.3644285	-0.18537826	0.39875928	1.3530347	0.13617308	0.33615274	1.3808206	-0.038349829	0.45975951	1.0156036	-0.25753937	0.23182207	1.061387	0.13165659	0.70258893	0.9559552	-0.24832257	0.18478594	0.85190322	0.2449342
303	1.208	0.0079121482	0.02057951	-0.12561692	0.82873782	0.039316529	0.021855584	-0.029251537	0.14938133	-0.15839315	0.68858911	0.054640122	0.068603124	0.0059470796	0.1488261	-0.080972278	0.7025648	0.078764026	-0.017764359	-0.079933957	0.18434984	-0.10743839	0.63566818	0.030071986	0.026620327	0.25517787	0.414191	-0.18681959	0.68893725	0.45277446	0.084267147	0.27154703	0.37181885	-0.072899823	0.67376138	0.4578026	-0.043652366	0.39371858	0.76821337	-0.21636813	0.52061753	0.82526271	0.15404533	0.48799837	0.86960484	-0.1723686	0.56041992	0.90657007	0.059833916	0.31478313	0.90747932	0.0069851504	0.44572551	1.3649288	-0.18441788	0.40530378	1.3532161	0.13687635	0.34280986	1.3810373	-0.03770569	0.4656301	1.0160343	-0.25646443	0.24004432	1.0609038	0.13206098	0.70813731	0.95534842	-0.24705981	0.19250735	0.85146677	0.24511609
304	1.212	0.010545865	0.022225426	-0.12603688	0.82900843	0.039140696	0.021773053	-0.022075472	0.15230332	-0.15945883	0.68872514	0.054610605	0.06855222	0.013063628	0.15109783	-0.081914888	0.70277768	0.078613839	-0.017829939	-0.071572037	0.189204	-0.10854735	0.63581726	0.030104912	0.026621876	0.26545662	0.41308863	-0.18742795	0.69460135	0.45264675	0.084151056	0.28208179	0.36973009	-0.073714129	0.67890059	0.45817504	-0.043531004	0.40260103	0.76684853	-0.21599384	0.52764784	0.82643506	0.15477703	0.49595275	0.86911065	-0.17096952	0.56758401	0.90712043	0.060673055	0.31793177	0.90865818	0.0089317972	0.45255471	1.365451	-0.18350809	0.41184774	1.3534225	0.13756897	0.34941684	1.3812589	-0.037157531	0.47144919	1.0165564	-0.25543313	0.24810852	1.0604476	0.13238448	0.7136049	0.95466189	-0.24585275	0.20037166	0.85098523	0.24533785
305	1.216	0.013312382	0.023974346	-0.12653075	0.82923197	0.039000257	0.021791025	-0.014624173	0.15534195	-0.16050609	0.68883303	0.054580261	0.068534625	0.020455373	0.15339783	-0.082807891	0.70298787	0.078514124	-0.017832107	-0.06279442	0.19414275	-0.10957042	0.63591856	0.030125112	0.026642555	0.27591647	0.41195992	-0.1880675	0.69988739	0.45241002	0.084173082	0.29279274	0.36755123	-0.074398355	0.68416078	0.45850709	-0.043290519	0.41140303	0.76557486	-0.21560251	0.53464794	0.827681	0.15549916	0.50376077	0.86867873	-0.16966307	0.57458385	0.90773572	0.061449258	0.32490264	0.909158	0.0090118105	0.45936171	1.3660009	-0.18266029	0.41839046	1.3536514	0.13824725	0.35595511	1.3815081	-0.036619012	0.4772281	1.017177	-0.25452216	0.25600116	1.0600072	0.13252493	0.71898844	0.95390039	-0.24471264	0.20844849	0.85046171	0.24560766
306	1.22	0.016216137	0.02575831	-0.12709685	0.82940733	0.038876909	0.021906954	-0.0068403171	0.15850111	-0.16155586	0.68889325	0.054546799	0.068562686	0.028181233	0.15567304	-0.083668057	0.70319441	0.078464641	-0.017752897	-0.05354109	0.19911805	-0.11045044	0.63598846	0.030138555	0.026688474	0.28655236	0.41083286	-0.18873795	0.70478949	0.45210337	0.084391639	0.30367933	0.36533817	-0.074958952	0.68947014	0.45877525	-0.042948832	0.42011292	0.76443431	-0.215217	0.54158434	0.82900068	0.15619595	0.51146295	0.86833346	-0.16842807	0.58147445	0.90842398	0.062145467	0.33457001	0.90896059	0.0073021322	0.46614141	1.3665837	-0.18188306	0.4249245	1.3539121	0.13890913	0.36240508	1.3818216	-0.036007109	0.48296066	1.0178704	-0.25373505	0.26376184	1.0595824	0.13262534	0.72428036	0.95307026	-0.24364438	0.21676133	0.84990521	0.24592866
307	1.224	0.019301284	0.02755257	-0.12772666	0.82953331	0.038765917	0.02207437	0.001275955	0.16177004	-0.16260087	0.68891292	0.054497665	0.068638122	0.036252792	0.15793327	-0.084504843	0.70336634	0.078463438	-0.017593866	-0.043793989	0.20407122	-0.11117933	0.63603247	0.030148274	0.026774105	0.29722351	0.40972026	-0.18934547	0.70931093	0.45177117	0.084830817	0.31473877	0.3631666	-0.075431381	0.69475995	0.4589662	-0.042507836	0.42871658	0.76346601	-0.21485401	0.54842879	0.83038899	0.15685122	0.51906007	0.8680987	-0.16727758	0.58820596	0.90920987	0.062790989	0.34478464	0.90839521	0.0046050699	0.47289134	1.3672063	-0.18117917	0.43144263	1.3542235	0.13955711	0.36877697	1.3822309	-0.035317405	0.48862395	1.018602	-0.253017	0.27147701	1.0591756	0.1328952	0.72947254	0.95217577	-0.24264043	0.22529071	0.84932933	0.24629512
308	1.228	0.022647781	0.029388942	-0.12843637	0.82961982	0.038667358	0.022258269	0.0096399764	0.16510689	-0.16355132	0.68892539	0.054419832	0.068753021	0.044645295	0.16022481	-0.08531377	0.70349386	0.078502313	-0.017374803	-0.033584859	0.20893701	-0.1117895	0.63604528	0.030155931	0.026913801	0.30784553	0.40862793	-0.18985313	0.71346064	0.45144942	0.085474078	0.32598765	0.36113985	-0.075886912	0.69995837	0.45908078	-0.041969306	0.43720044	0.76270198	-0.21451501	0.55517748	0.83183728	0.15746252	0.52653176	0.86800355	-0.16624156	0.59469171	0.91012681	0.063429348	0.35384458	0.90795741	0.0019498239	0.47961656	1.3678763	-0.18054382	0.43794384	1.3546042	0.14019271	0.37511558	1.3827644	-0.034626046	0.49421197	1.0193623	-0.25231055	0.27923862	1.0587811	0.1333737	0.73455541	0.9512198	-0.24168687	0.23401514	0.8487463	0.24670218
309	1.232	0.026357083	0.031350038	-0.12927059	0.82967961	0.038584356	0.022444758	0.018206814	0.16845246	-0.16434183	0.68896108	0.054312231	0.068896932	0.053317097	0.16258404	-0.086078267	0.70360151	0.078567883	-0.017124413	-0.023002515	0.2136517	-0.11232938	0.63602212	0.030165342	0.027111238	0.31851522	0.40756731	-0.19035321	0.71725992	0.45116192	0.086280731	0.33747564	0.35938659	-0.076441921	0.7049823	0.45913375	-0.041345362	0.44555136	0.76216366	-0.21418609	0.56183848	0.83333169	0.15803624	0.53386968	0.86808548	-0.16532746	0.60094564	0.91118701	0.06405678	0.3612514	0.90794236	-5.6478764e-05	0.48632073	1.3686023	-0.1799692	0.44443096	1.3550627	0.14080839	0.38146263	1.3834482	-0.033997334	0.49973926	1.0201673	-0.2515913	0.28707614	1.0583946	0.13395632	0.73952027	0.95020777	-0.24077649	0.24292458	0.84816244	0.24714596
310	1.236	0.030529617	0.033535964	-0.13026127	0.82972347	0.038518254	0.022628637	0.027031103	0.1717586	-0.16500665	0.6890239	0.054187805	0.069061422	0.062224178	0.16500345	-0.086776901	0.70371908	0.078648915	-0.016868319	-0.012182774	0.21816196	-0.11283347	0.63597527	0.030184206	0.027344885	0.32940912	0.40655841	-0.19095114	0.72075263	0.45091737	0.087198648	0.34924781	0.35801755	-0.077197645	0.70975874	0.45914667	-0.040652907	0.45375681	0.76185942	-0.2138454	0.56841395	0.83485424	0.15857852	0.54103866	0.8683783	-0.16452693	0.60711402	0.91235116	0.06461723	0.36765482	0.90829008	-0.0015160656	0.49299967	1.3693941	-0.17944792	0.4509038	1.3555997	0.14139138	0.3878319	1.3842958	-0.033439238	0.50522013	1.0210366	-0.25086191	0.29494153	1.0580281	0.13454699	0.74436631	0.94915001	-0.23991465	0.25201351	0.8475801	0.24761729
311	1.24	0.03526535	0.036024439	-0.13138309	0.82976106	0.03846576	0.022808386	0.036159874	0.17500239	-0.16560716	0.68909329	0.054064687	0.06923969	0.071323243	0.16743895	-0.087390018	0.70385367	0.078741479	-0.016618454	-0.0012798391	0.22243328	-0.11329922	0.63593092	0.03021905	0.027570958	0.3406249	0.40561292	-0.1916401	0.72398611	0.4507056	0.088171273	0.36124622	0.35704856	-0.0781056	0.71424584	0.45913677	-0.039907217	0.46180928	0.76178449	-0.21347629	0.57489697	0.83639037	0.1590918	0.54793064	0.86889515	-0.16384933	0.6133263	0.91354761	0.065075672	0.37413799	0.90881842	-0.0028328494	0.49964337	1.3702613	-0.17897415	0.45735691	1.3562166	0.14193277	0.39421659	1.3853009	-0.032935518	0.51065616	1.0219868	-0.25014334	0.30277847	1.0577038	0.13511739	0.74909783	0.94806224	-0.23911266	0.26127683	0.84700344	0.24810526
312	1.244	0.040690097	0.038850401	-0.13255803	0.82979708	0.038422324	0.022985967	0.04554911	0.17818758	-0.16616041	0.68914273	0.053959036	0.069423418	0.080568935	0.16985164	-0.087902746	0.70399151	0.078846964	-0.016372183	0.0095696299	0.2264568	-0.11369075	0.63590493	0.030268162	0.027753414	0.35207286	0.40472136	-0.19228568	0.72697072	0.45050183	0.089146983	0.37329263	0.35639023	-0.078952942	0.71843375	0.45910978	-0.039121886	0.46971066	0.76192629	-0.21307153	0.58127802	0.83793403	0.15957796	0.55446232	0.86963508	-0.16332833	0.6195843	0.91473317	0.065451834	0.38151199	0.90944589	-0.0041882863	0.50624183	1.3712112	-0.1785421	0.46378638	1.3569189	0.14243189	0.40060407	1.3864431	-0.032475478	0.51603218	1.0230283	-0.24946103	0.31057691	1.0574376	0.135679	0.75371404	0.94696082	-0.23837545	0.27071153	0.84644026	0.24860472
313	1.248	0.046951603	0.041997462	-0.13370273	0.82982835	0.038385969	0.023161863	0.055103174	0.18134318	-0.16664649	0.68915509	0.053883177	0.069602946	0.089928011	0.17224629	-0.088303019	0.70411869	0.078965412	-0.016122233	0.020278588	0.23025171	-0.11397157	0.63589332	0.030324775	0.027885164	0.36352832	0.40388493	-0.19277246	0.72968304	0.45028387	0.09008726	0.38522648	0.35595035	-0.079551945	0.72233653	0.45905977	-0.03832012	0.47746763	0.76227231	-0.21262517	0.58754883	0.83948405	0.16004192	0.56077118	0.8706176	-0.16298048	0.62581935	0.91591497	0.06578542	0.38980445	0.91019121	-0.0053028447	0.51278866	1.3722476	-0.17814306	0.4701936	1.3577138	0.14289636	0.40698049	1.3876974	-0.032054609	0.52132162	1.0241589	-0.24882478	0.31835726	1.0572322	0.13624967	0.75820632	0.94585342	-0.23769626	0.28032136	0.84590009	0.24911712
314	1.252	0.054159225	0.045386546	-0.13476145	0.8298497	0.03835658	0.023330912	0.064753243	0.18450492	-0.16704167	0.68912849	0.053843418	0.069772998	0.099408085	0.17467393	-0.088592291	0.70423534	0.079090886	-0.015868154	0.030827449	0.23385635	-0.11414808	0.63588727	0.030386836	0.027979417	0.37486808	0.40316078	-0.19314409	0.73211802	0.45004947	0.090976881	0.39701052	0.35571498	-0.079882034	0.72597417	0.45898091	-0.037532534	0.48507948	0.76280999	-0.21212979	0.5937067	0.84103775	0.16049191	0.56714386	0.87188408	-0.16276708	0.63198203	0.91711903	0.066109687	0.39819586	0.91109389	-0.0055745094	0.51927914	1.3733705	-0.17776844	0.47657292	1.3586052	0.14333544	0.41332908	1.3890381	-0.031667213	0.52651457	1.0253679	-0.2482344	0.3261336	1.0570825	0.13683914	0.76256526	0.9447363	-0.23706297	0.29011508	0.84539312	0.24964617
315	1.256	0.062327904	0.048882512	-0.1356948	0.82986217	0.038332724	0.02348631	0.074496738	0.18767988	-0.16734357	0.68907637	0.053836707	0.069934576	0.10906436	0.17720361	-0.088818472	0.70435289	0.079214386	-0.015620242	0.041259444	0.2373074	-0.1142964	0.63588429	0.03045787	0.028052099	0.38623795	0.4026531	-0.19346872	0.73432399	0.44981496	0.091835617	0.40869964	0.35571881	-0.080038262	0.72934505	0.45888286	-0.036764043	0.49253122	0.76352055	-0.21158589	0.59975706	0.84258862	0.16093664	0.57366958	0.87344146	-0.16262584	0.6380596	0.91835899	0.066443126	0.40566936	0.91221521	-0.0045458121	0.52570843	1.3745774	-0.1774149	0.48290352	1.3595886	0.14374981	0.41963277	1.3904415	-0.031304092	0.5316349	1.0266485	-0.2476961	0.33390138	1.056983	0.13744699	0.76678495	0.94360465	-0.23646871	0.30009554	0.84492832	0.25019205
